# xmcd
#
# Track frame offsets: 
#        150
#        24867
#        40120
#        55767
#        73272
#        91020
#        101550
#        115205
#        131762
#        150885
#        166825
#        186845
#        208135
#        226245
#
# Disc length: 3247 seconds
#
# Revision: 3
# Processed by: cddbd v1.5.2PL0 Copyright (c) Steve Scherf et al.
# Submitted via: ExactAudioCopy v0.99pb4
#
DISCID=ac0cad0e
DTITLE=Buick 6 - Juice Machine
DYEAR=1995
DGENRE=Blues
TTITLE0=Hard Times Here
TTITLE1=Nothin' Left To Lose
TTITLE2=What I Love
TTITLE3=Believe I'm Outa Luck
TTITLE4=When You Need Somebody
TTITLE5=Juice Machine
TTITLE6=Foolin' With This Heart
TTITLE7=Circles
TTITLE8=Is This Love
TTITLE9=King Bee
TTITLE10=So Easy
TTITLE11=Shiftin' Sand
TTITLE12=Sugar Coated Love
TTITLE13=Corisande
EXTD=YEAR:1995 Taxim Records
EXTT0=
EXTT1=
EXTT2=
EXTT3=
EXTT4=
EXTT5=
EXTT6=
EXTT7=
EXTT8=
EXTT9=
EXTT10=
EXTT11=
EXTT12=
EXTT13=
PLAYORDER=
